<?xml version="1.0" encoding="UTF-8"?>
<svg width="300px" height="234px" viewBox="0 0 300 234" version="1.1" xmlns="http://www.w3.org/2000/svg" xmlns:xlink="http://www.w3.org/1999/xlink">
    <!-- Generator: Sketch 43.2 (39069) - http://www.bohemiancoding.com/sketch -->
    <title>Group</title>
    <desc>Created with Sketch.</desc>
    <defs></defs>
    <g id="Page-1" stroke="none" stroke-width="1" fill="none" fill-rule="evenodd">
        <g id="Group" transform="translate(0.000000, -2.000000)">
            <path d="M102.197802,208.928571 L102.197802,214.285714 L155.769231,214.285714 L155.769231,235.714286 L96.8406593,235.714286 L80.7692308,235.714286 L80.7692308,198.214286 L91.4835165,198.214286 L91.4835165,198.214286 L80.7692308,198.214286 C80.7692308,177.503608 97.5585527,160.714286 118.269231,160.714286 C138.979909,160.714286 155.769231,177.503608 155.769231,198.214286 L155.769231,208.928571 L102.197802,208.928571 Z M133.426164,192.857143 C131.219898,186.615041 125.266832,182.142857 118.269231,182.142857 C111.27163,182.142857 105.318564,186.615041 103.112297,192.857143 L133.426164,192.857143 Z" id="Combined-Shape" fill="#1E518C"></path>
            <polygon id="Path-Copy-3" fill="#1E518C" transform="translate(37.500000, 181.730769) rotate(90.000000) translate(-37.500000, -181.730769) " points="91.4835165 144.230769 15.9479019 144.230769 15.8888897 197.777125 -16.4835165 197.647584 -16.4835165 219.172267 91.4835165 219.230769 91.4835165 197.718623 37.6222396 197.718623 37.5295061 165.625911 91.4835165 165.625911"></polygon>
            <path d="M300,235.334524 C298.250341,235.584793 296.461721,235.714286 294.642857,235.714286 C273.932179,235.714286 257.142857,218.924964 257.142857,198.214286 C257.142857,177.503608 273.932179,160.714286 294.642857,160.714286 C296.461721,160.714286 298.250341,160.843778 300,161.094047 L300,183.057352 C298.324399,182.465112 296.521261,182.142857 294.642857,182.142857 C285.766852,182.142857 278.571429,189.338281 278.571429,198.214286 C278.571429,207.090291 285.766852,214.285714 294.642857,214.285714 C296.521261,214.285714 298.324399,213.96346 300,213.371219 L300,235.334524 Z M235.714286,128.571429 L257.142857,128.571429 L257.142857,235.714286 L235.714286,235.714286 L235.714286,128.571429 Z" id="Combined-Shape" fill="#1E518C"></path>
            <path d="M226.648352,235.334524 C224.898693,235.584793 223.110073,235.714286 221.291209,235.714286 C200.580531,235.714286 183.791209,218.924964 183.791209,198.214286 C183.791209,177.503608 200.580531,160.714286 221.291209,160.714286 C223.110073,160.714286 224.898693,160.843778 226.648352,161.094047 L226.648352,183.057352 C224.97275,182.465112 223.169613,182.142857 221.291209,182.142857 C212.415204,182.142857 205.21978,189.338281 205.21978,198.214286 C205.21978,207.090291 212.415204,214.285714 221.291209,214.285714 C223.169613,214.285714 224.97275,213.96346 226.648352,213.371219 L226.648352,235.334524 Z M162.362637,128.571429 L183.791209,128.571429 L183.791209,235.714286 L162.362637,235.714286 L162.362637,128.571429 Z" id="Combined-Shape-Copy" fill="#1E518C"></path>
            <path d="M152.374947,97.1092673 C142.414885,91.1687522 126.267587,91.1680642 116.306372,97.1092673 L95.7670935,109.359581 C89.1271517,113.319865 86.959617,111.139598 90.9151438,104.507632 L103.165458,83.9683537 C109.105973,74.0082916 109.106661,57.8609939 103.165458,47.8997781 L90.9151438,27.3605001 C86.9548598,20.7205583 89.1351277,18.5530235 95.7670935,22.5085504 L116.306372,34.7588646 C126.266434,40.6993797 142.413731,40.7000677 152.374947,34.7588646 L172.914225,22.5085504 C179.554167,18.5482664 181.721702,20.7285343 177.766175,27.3605001 L165.515861,47.8997781 C159.575346,57.8598403 159.574658,74.007138 165.515861,83.9683537 L177.766175,104.507632 C181.726459,111.147574 179.546191,113.315108 172.914225,109.359581 L152.374947,97.1092673 Z" id="Star" fill="#F6A623" transform="translate(134.340659, 65.934066) rotate(45.000000) translate(-134.340659, -65.934066) "></path>
            <path d="M87.9889731,137.399945 C77.99815,131.502036 61.7957976,131.504414 51.809002,137.399945 L54.5691973,135.770512 C47.9151344,139.698622 45.7568277,137.513103 49.7425868,130.898806 L48.0151263,133.765496 C53.9991336,123.835141 53.9950489,107.728077 48.0151263,97.8045 L49.7425868,100.67119 C45.7541873,94.0525114 47.9136281,91.8704853 54.5691973,95.7994848 L51.809002,94.1700515 C61.7998252,100.06796 78.0781172,100.199137 88.1549121,94.4702477 L85.4837299,95.988876 C92.2086105,92.1656271 94.3383977,94.3769773 90.2325939,100.941093 L92.0836152,97.9817897 C85.9334992,107.81423 85.8029262,123.84192 91.7828488,133.765496 L90.0553883,130.898806 C94.0437879,137.517485 91.884347,139.699511 85.2287778,135.770512 L87.9889731,137.399945 Z" id="Star-Copy" fill="#1E518C" transform="translate(70.043251, 115.784998) rotate(45.000000) translate(-70.043251, -115.784998) "></path>
        </g>
    </g>
</svg>